<svg width="649" height="649" xmlns="http://www.w3.org/2000/svg" xmlns:xlink="http://www.w3.org/1999/xlink" overflow="hidden"><defs><clipPath id="clip0"><rect x="1497" y="913" width="649" height="649"/></clipPath><linearGradient x1="1709.58" y1="1259.45" x2="1861.72" y2="1102.47" gradientUnits="userSpaceOnUse" spreadMethod="reflect" id="fill1"><stop offset="0" stop-color="#214ED3"/><stop offset="0.3" stop-color="#214ED3"/><stop offset="0.76" stop-color="#75E6DA"/><stop offset="1" stop-color="#75E6DA"/></linearGradient></defs><g clip-path="url(#clip0)" transform="translate(-1497 -913)"><path d="M1497 1237.5C1497 1058.28 1642.28 913 1821.5 913 2000.72 913 2146 1058.28 2146 1237.5 2146 1416.72 2000.72 1562 1821.5 1562 1642.28 1562 1497 1416.72 1497 1237.5Z" fill="#F0F0F0" fill-rule="evenodd"/><rect x="1840" y="1080" width="215" height="65" fill="#75E6DA"/><path d="M1686.25 1236.84 1838.39 1079.86 1885.04 1125.07 1732.9 1282.05Z" fill="url(#fill1)" fill-rule="evenodd"/><path d="M1644.76 1112.65 1776.89 1234.25 1732.9 1282.05 1600.77 1160.44Z" fill="#214ED3" fill-rule="evenodd"/><path d="M1588 1156 1588 1060 1692 1156Z" fill="#214ED3" fill-rule="evenodd"/><rect x="1589" y="1156" width="65" height="260" fill="#214ED3"/><rect x="1850" y="1216" width="215" height="65.0004" fill="#75E6DA"/><rect x="1850" y="1351" width="215" height="65" fill="#75E6DA"/><rect x="1840" y="1216" width="65" height="200" fill="#75E6DA"/></g></svg>