<svg width="336" height="335" xmlns="http://www.w3.org/2000/svg" xmlns:xlink="http://www.w3.org/1999/xlink" overflow="hidden"><defs><clipPath id="clip0"><rect x="513" y="100" width="336" height="335"/></clipPath></defs><g clip-path="url(#clip0)" transform="translate(-513 -100)"><path d="M366.076 329.439C368.079 330.271 370.085 331.583 371.784 333.529 375.649 337.908 377.401 344.448 376.229 350.18 375.092 355.887 371.532 359.639 367.072 360.836L311.035 375.929C306.895 376.794 302.382 375.396 298.925 371.61 295.248 367.607 293.832 361.755 295.003 356.44 296.14 351.21 299.734 347.118 304.052 345.97ZM371.035 286.737C375.599 291.75 377.572 299.239 376.149 305.867 374.726 312.517 370.388 317.192 364.955 318.668L302.734 335.318C297.281 336.768 291.211 334.906 286.677 329.865 282.054 324.765 280.215 317.858 281.665 311.131 282.97 304.893 287.064 299.464 292.188 298.101L354.926 281.28C360.928 279.694 367.61 282.978 371.035 286.737ZM358.257 239.072C362.791 244.112 364.794 251.541 363.371 258.202 361.948 264.856 357.61 269.5 352.157 270.95L289.935 287.593C284.506 289.07 278.432 287.204 273.899 282.137 269.275 277.049 267.436 270.174 268.886 263.457 270.275 256.813 274.583 252.189 280.08 250.649L342.184 233.586C347.925 232.006 354.499 235.2 358.257 239.073ZM191.446 114.636C199.828 114.213 212.827 120.089 218.058 127.692 232.506 148.707 234.238 172.561 237.466 210.227 237.772 213.515 240.973 215.763 244.181 214.904L418.148 167.854C423.996 166.273 428.224 167.167 431.426 169.105 434.623 171.052 436.905 174.29 437.878 178.014 439.861 185.477 437.321 194.024 425.916 197.449L277.256 240.373C267.706 242.994 260.551 251.064 258.404 261.197 256.267 271.247 259.052 281.686 265.92 289.316 269.011 292.743 272.799 295.303 276.839 296.89 274.135 300.309 272.132 304.4 271.179 308.916 269.041 318.939 271.827 329.405 278.725 337.035 281.681 340.31 285.242 342.766 289.084 344.353 286.947 347.185 285.36 350.503 284.541 354.151 282.649 362.815 285.02 372.28 291.003 378.851 291.641 379.539 292.339 380.156 293.04 380.771L279.426 384.415C254.344 391.209 241.257 394.052 232.628 394.132 223.994 394.215 219.132 391.88 208.324 386.92 186.442 376.834 172.694 353.734 166.618 326.454 160.521 299.2 162.337 268.182 170.494 244.365L188.084 192.946C194.6 173.876 192.738 154.639 184.611 132.815 181.655 124.883 182.322 120.453 183.607 118.282 184.852 116.111 187.241 114.833 191.449 114.635ZM190.916 103.921C184.399 104.254 177.782 106.905 174.299 112.881 170.826 118.901 171.025 126.89 174.581 136.521 182.181 157.01 183.57 173.042 177.953 189.521L160.33 240.88C151.414 266.916 149.609 299.481 156.156 328.825 162.726 358.196 177.873 384.695 203.811 396.61 214.586 401.566 221.935 404.904 232.706 404.824 243.48 404.744 256.956 401.569 282.18 394.774L369.893 371.171C391.251 365.43 392.72 332.865 377.329 323.987 396.955 306.39 384.459 276.55 368.258 272.238 380.841 259.121 374.356 236.095 361.443 227.918L429.009 207.708C445.23 202.859 451.474 187.669 448.219 175.3 446.599 169.149 442.79 163.5 437.025 159.96 431.264 156.426 423.63 155.281 415.396 157.51L247.382 202.97C244.523 169.147 242.201 143.896 226.9 121.656 218.897 110.013 203.925 103.312 190.918 103.922Z" transform="matrix(1.00148 0 0 1 390.195 28.4505)"/><path d="M320.608 83.0121C318.437 83.0725 316.545 84.4013 315.743 86.4112L298.589 128.053C297.452 130.785 298.753 133.905 301.481 135.049 304.22 136.187 307.361 134.871 308.498 132.153L325.651 90.4778C327.188 86.9077 324.514 82.9282 320.608 83.0121Z" transform="matrix(1.00148 0 0 1 390.195 28.4505)"/><path d="M268.922 76.0756C265.975 76.1092 263.609 78.5285 263.64 81.478L263.607 125.27C263.408 128.324 265.862 130.921 268.918 130.951 271.985 130.951 274.428 128.384 274.294 125.328L274.327 81.5041C274.378 78.5009 271.925 76.048 268.922 76.0749Z" transform="matrix(1.00148 0 0 1 390.195 28.4505)"/><path d="M362.064 114.935C360.675 114.996 359.36 115.546 358.387 116.556L327.6 147.541C325.509 149.631 325.509 153.021 327.619 155.111 329.71 157.201 333.109 157.168 335.199 155.05L365.986 124.103C369.416 120.677 366.906 114.835 362.064 114.935Z" transform="matrix(1.00148 0 0 1 390.195 28.4505)"/><path d="M17.9052-1.07376C16.9824-0.590569 16.0194-0.22817 15.0194 0.0134006 14.0161 0.254997 12.9726 0.3758 11.8921 0.3758 8.64404 0.3758 6.07036-0.526848 4.17444-2.33541 2.27526-4.15075 1.32897-6.61035 1.32897-9.71755 1.32897-12.8315 2.27526-15.2944 4.17444-17.1131 6.07028-18.9284 8.64396-19.8378 11.8921-19.8378 12.9726-19.8378 14.0162-19.7103 15.0194-19.462 16.0194-19.2204 16.9824-18.8614 17.9052-18.3882L17.9052-14.3482C16.9724-14.9824 16.0564-15.4488 15.1537-15.7441 14.2477-16.0394 13.2947-16.187 12.2948-16.187 10.503-16.187 9.09365-15.6133 8.06687-14.469 7.03675-13.3214 6.52332-11.7376 6.52332-9.71763 6.52332-7.71111 7.03671-6.13396 8.06687-4.97971 9.09365-3.83216 10.5029-3.26169 12.2948-3.26169 13.2948-3.26169 14.2477-3.40934 15.1537-3.70462 16.0564-3.9999 16.9724-4.46296 17.9052-5.10051Z" transform="matrix(1.00148 0 0 1 450.414 589.669)"/><path d="M13.0999-10.6302C12.6871-10.8249 12.2812-10.9691 11.8785-11.0597 11.4759-11.147 11.0664-11.1939 10.657-11.1939 9.45581-11.1939 8.52962-10.8081 7.87866-10.0397 7.23441-9.26785 6.91228-8.16725 6.91228-6.73777L6.91228 0.000128851 2.24141 0.000128851 2.24141-14.6168 6.91228-14.6168 6.91228-12.2143C7.50956-13.1705 8.20079-13.8685 8.97923-14.3081 9.75775-14.7443 10.6905-14.9658 11.7844-14.9658 11.9354-14.9658 12.0998-14.9557 12.281-14.9389 12.469-14.9288 12.7374-14.902 13.0863-14.8584Z" transform="matrix(1.00148 0 0 1 470.056 589.669)"/><path d="M16.8314-7.34187 16.8314-6.01307 5.90569-6.01307C6.01978-4.9192 6.41909-4.09705 7.10023-3.54341 7.77804-2.99647 8.72762-2.72468 9.9457-2.72468 10.9288-2.72468 11.9355-2.8656 12.9656-3.15418 13.9924-3.44946 15.0528-3.8924 16.1466-4.48298L16.1466-0.885879C15.0359-0.463083 13.9253-0.151022 12.818 0.0537053 11.7174 0.268458 10.6168 0.375834 9.51611 0.375834 6.86529 0.375834 4.80831-0.295267 3.34198-1.63751 1.88235-2.97972 1.15417-4.86215 1.15417-7.28816 1.15417-9.67726 1.86889-11.5496 3.30169-12.912 4.74122-14.2811 6.72433-14.9656 9.24767-14.9656 11.5462-14.9656 13.385-14.271 14.7641-12.8851 16.1399-11.506 16.8311-9.65716 16.8311-7.34185ZM12.0263-8.89882C12.0263-9.78464 11.7646-10.4994 11.2479-11.0463 10.7378-11.5899 10.06-11.8651 9.22112-11.8651 8.31508-11.8651 7.58364-11.61 7.01987-11.1 6.4561-10.59 6.10047-9.85516 5.95951-8.89882Z" transform="matrix(1.00148 0 0 1 483.256 589.669)"/><path d="M8.7911-6.57675C7.81467-6.57675 7.07979-6.40898 6.58989-6.08014 6.1067-5.74794 5.8651-5.2614 5.8651-4.61716 5.8651-4.02659 6.05972-3.56015 6.45567-3.22127 6.84827-2.88907 7.39861-2.72466 8.1066-2.72466 8.98232-2.72466 9.72055-3.03672 10.3213-3.66424 10.9185-4.29843 11.2206-5.09037 11.2206-6.03992L11.2206-6.5768ZM15.9316-8.33506 15.9316 0 11.2205 0 11.2205-2.16092C10.593-1.27511 9.88497-0.630857 9.09975-0.228153 8.32127 0.174508 7.37168 0.375834 6.25428 0.375834 4.74096 0.375834 3.50948-0.0603798 2.5632-0.939482 1.62361-1.82529 1.15391-2.97293 1.15391-4.38892 1.15391-6.09689 1.73777-7.34847 2.91221-8.14709 4.09335-8.95243 5.94555-9.35504 8.46898-9.35504L11.2205-9.35504 11.2205-9.71746C11.2205-10.459 10.9286-10.9993 10.3481-11.3415 9.76419-11.6904 8.85819-11.8649 7.62337-11.8649 6.62004-11.8649 5.68389-11.7609 4.81819-11.5563 3.95918-11.3583 3.16055-11.0596 2.42911-10.657L2.42911-14.2272C3.42908-14.4687 4.43232-14.6499 5.43564-14.7775 6.44566-14.9016 7.45569-14.9653 8.46898-14.9653 11.1064-14.9653 13.009-14.4453 14.1733-13.4084 15.3444-12.3682 15.9316-10.677 15.9316-8.33491Z" transform="matrix(1.00148 0 0 1 501.405 589.669)"/><path d="M7.34187-18.7642 7.34187-14.6168 12.1604-14.6168 12.1604-11.2748 7.34187-11.2748 7.34187-5.07374C7.34187-4.39257 7.47609-3.93289 7.74453-3.69125 8.01968-3.45636 8.55656-3.34228 9.35513-3.34228L11.7577-3.34228 11.7577-0.000214752 7.74453-0.000214752C5.89903-0.000214752 4.59368-0.38274 3.8253-1.15455 3.05353-1.92296 2.67096-3.22829 2.67096-5.07378L2.67096-11.2748 0.348973-11.2748 0.348973-14.6168 2.67096-14.6168 2.67096-18.7642Z" transform="matrix(1.00148 0 0 1 519.468 589.669)"/><path d="M16.8314-7.34187 16.8314-6.01307 5.90569-6.01307C6.01978-4.9192 6.41909-4.09705 7.10023-3.54341 7.77804-2.99647 8.72762-2.72468 9.9457-2.72468 10.9288-2.72468 11.9355-2.8656 12.9656-3.15418 13.9924-3.44946 15.0528-3.8924 16.1466-4.48298L16.1466-0.885879C15.0359-0.463083 13.9253-0.151022 12.818 0.0537053 11.7174 0.268458 10.6168 0.375834 9.51611 0.375834 6.86529 0.375834 4.80831-0.295267 3.34198-1.63751 1.88235-2.97972 1.15417-4.86215 1.15417-7.28816 1.15417-9.67726 1.86889-11.5496 3.30169-12.912 4.74122-14.2811 6.72433-14.9656 9.24767-14.9656 11.5462-14.9656 13.385-14.271 14.7641-12.8851 16.1399-11.506 16.8311-9.65716 16.8311-7.34185ZM12.0263-8.89882C12.0263-9.78464 11.7646-10.4994 11.2479-11.0463 10.7378-11.5899 10.06-11.8651 9.22112-11.8651 8.31508-11.8651 7.58364-11.61 7.01987-11.1 6.4561-10.59 6.10047-9.85516 5.95951-8.89882Z" transform="matrix(1.00148 0 0 1 532.262 589.669)"/><path d="M12.1876-12.4694 12.1876-20.3078 16.8854-20.3078 16.8854 0 12.1876 0 12.1876-2.10724C11.5434-1.24823 10.832-0.61737 10.0535-0.214752 9.28177 0.177841 8.38917 0.375817 7.3691 0.375817 5.57051 0.375817 4.08743-0.338905 2.92639-1.77171 1.77205-3.20119 1.19497-5.03998 1.19497-7.28818 1.19497-9.54308 1.77212-11.3852 2.92639-12.8181 4.08743-14.2475 5.57051-14.9656 7.3691-14.9656 8.37912-14.9656 9.27507-14.7642 10.0535-14.3616 10.8319-13.9589 11.5434-13.3281 12.1876-12.4691ZM9.11401-3.02028C10.1072-3.02028 10.8656-3.38268 11.3957-4.10744 11.9225-4.83894 12.1876-5.89925 12.1876-7.28844 12.1876-8.68433 11.9225-9.74469 11.3957-10.4694 10.8655-11.201 10.1072-11.57 9.11401-11.57 8.12082-11.57 7.35905-11.2009 6.8323-10.4694 6.30213-9.74469 6.0404-8.68433 6.0404-7.28844 6.0404-5.89925 6.30213-4.83889 6.8323-4.10744 7.35912-3.38265 8.12082-3.02028 9.11401-3.02028Z" transform="matrix(1.00148 0 0 1 550.414 589.669)"/><path d="M10.0264-3.01993C11.0195-3.01993 11.778-3.38233 12.3081-4.1071 12.8349-4.83859 13.1-5.8989 13.1-7.28809 13.1-8.68399 12.8349-9.74435 12.3081-10.4691 11.7779-11.2006 11.0195-11.5697 10.0264-11.5697 9.02304-11.5697 8.25465-11.2005 7.71777-10.4691 7.18089-9.73421 6.91245-8.67394 6.91245-7.28809 6.91245-5.90896 7.18089-4.85203 7.71777-4.1205 8.25465-3.38564 9.02304-3.01993 10.0264-3.01993ZM6.91245-12.469C7.55671-13.328 8.26805-13.9589 9.04657-14.3615 9.83179-14.7642 10.7378-14.9655 11.7578-14.9655 13.5564-14.9655 15.0328-14.2474 16.187-12.818 17.348-11.3851 17.9318-9.543 17.9318-7.28811 17.9318-5.03991 17.348-3.20112 16.187-1.77164 15.0327-0.338811 13.5563 0.375885 11.7578 0.375885 10.7377 0.375885 9.83171 0.174551 9.04657-0.228101 8.2681-0.630762 7.55671-1.25488 6.91245-2.10718L6.91245 5.15406e-05 2.24159 5.15406e-05 2.24159-20.3078 6.91245-20.3078Z" transform="matrix(1.00148 0 0 1 578.891 589.669)"/><path d="M0.322129-14.6169 4.99299-14.6169 8.92563-4.69792 12.2677-14.6169 16.9386-14.6169 10.7913 1.38215C10.1739 3.00954 9.45246 4.14713 8.63038 4.79138 7.80493 5.44235 6.72441 5.77117 5.3823 5.77117L2.67109 5.77117 2.67109 2.69755 4.13407 2.69755C4.92932 2.69755 5.50651 2.57004 5.86549 2.32173 6.22117 2.07007 6.50304 1.61708 6.71108 0.966128L6.83188 0.563467Z" transform="matrix(1.00148 0 0 1 598.049 589.669)"/><path d="M17.9052-1.07376C16.9824-0.590569 16.0194-0.22817 15.0194 0.0134006 14.0161 0.254997 12.9726 0.3758 11.8921 0.3758 8.64404 0.3758 6.07036-0.526848 4.17444-2.33541 2.27526-4.15075 1.32897-6.61035 1.32897-9.71755 1.32897-12.8315 2.27526-15.2944 4.17444-17.1131 6.07028-18.9284 8.64396-19.8378 11.8921-19.8378 12.9726-19.8378 14.0162-19.7103 15.0194-19.462 16.0194-19.2204 16.9824-18.8614 17.9052-18.3882L17.9052-14.3482C16.9724-14.9824 16.0564-15.4488 15.1537-15.7441 14.2477-16.0394 13.2947-16.187 12.2948-16.187 10.503-16.187 9.09365-15.6133 8.06687-14.469 7.03675-13.3214 6.52332-11.7376 6.52332-9.71763 6.52332-7.71111 7.03671-6.13396 8.06687-4.97971 9.09365-3.83216 10.5029-3.26169 12.2948-3.26169 13.2948-3.26169 14.2477-3.40934 15.1537-3.70462 16.0564-3.9999 16.9724-4.46296 17.9052-5.10051Z" transform="matrix(1.00148 0 0 1 624.812 589.669)"/><path d="M2.09384-5.69094 2.09384-14.6169 6.79159-14.6169 6.79159-13.1539C6.79159-12.3553 6.78488-11.3588 6.77817-10.1608 6.7681-8.96961 6.76474-8.17434 6.76474-7.77172 6.76474-6.59728 6.79159-5.75167 6.84528-5.23498 6.90567-4.71487 7.01305-4.33903 7.1674-4.10753 7.35531-3.80217 7.60027-3.56394 7.90562-3.39616 8.21768-3.2351 8.57672-3.15457 8.9794-3.15457 9.95249-3.15457 10.7175-3.52367 11.2746-4.26862 11.8282-5.02025 12.1067-6.06042 12.1067-7.39593L12.1067-14.6169 16.7776-14.6169 16.7776-2.57703e-05 12.1067-2.57703e-05 12.1067-2.10726C11.3987-1.25496 10.6504-0.630797 9.86521-0.228179 9.07673 0.174482 8.20761 0.375808 7.26141 0.375808 5.57697 0.375808 4.29516-0.137588 3.40926-1.16775 2.53015-2.20457 2.09395-3.71119 2.09395-5.69095Z" transform="matrix(1.00148 0 0 1 644.454 589.669)"/><path d="M6.91236-2.10724 6.91236 5.55676 2.2415 5.55676 2.2415-14.6162 6.91236-14.6162 6.91236-12.4687C7.55662-13.3277 8.26797-13.9586 9.04649-14.3612 9.83171-14.7638 10.7377-14.9651 11.7577-14.9651 13.5563-14.9651 15.0327-14.2471 16.1869-12.8176 17.348-11.3848 17.9317-9.54265 17.9317-7.28777 17.9317-5.03957 17.3479-3.20077 16.1869-1.7713 15.0326-0.338467 13.5562 0.376229 11.7577 0.376229 10.7376 0.376229 9.83162 0.174894 9.04649-0.227758 8.26801-0.630419 7.55662-1.25453 6.91236-2.10684ZM10.0263-11.5701C9.02295-11.5701 8.25457-11.201 7.71769-10.4695 7.1808-9.73464 6.91236-8.67437 6.91236-7.28853 6.91236-5.90939 7.1808-4.85246 7.71769-4.12093 8.25457-3.38607 9.02295-3.02036 10.0263-3.02036 11.0195-3.02036 11.7779-3.38276 12.308-4.10753 12.8348-4.83902 13.0999-5.89933 13.0999-7.28853 13.0999-8.68442 12.8348-9.74478 12.308-10.4695 11.7778-11.2011 11.0195-11.5701 10.0263-11.5701Z" transform="matrix(1.00148 0 0 1 663.507 589.669)"/><path d="M2.09384-5.69094 2.09384-14.6169 6.79159-14.6169 6.79159-13.1539C6.79159-12.3553 6.78488-11.3588 6.77817-10.1608 6.7681-8.96961 6.76474-8.17434 6.76474-7.77172 6.76474-6.59728 6.79159-5.75167 6.84528-5.23498 6.90567-4.71487 7.01305-4.33903 7.1674-4.10753 7.35531-3.80217 7.60027-3.56394 7.90562-3.39616 8.21768-3.2351 8.57672-3.15457 8.9794-3.15457 9.95249-3.15457 10.7175-3.52367 11.2746-4.26862 11.8282-5.02025 12.1067-6.06042 12.1067-7.39593L12.1067-14.6169 16.7776-14.6169 16.7776-2.57703e-05 12.1067-2.57703e-05 12.1067-2.10726C11.3987-1.25496 10.6504-0.630797 9.86521-0.228179 9.07673 0.174482 8.20761 0.375808 7.26141 0.375808 5.57697 0.375808 4.29516-0.137588 3.40926-1.16775 2.53015-2.20457 2.09395-3.71119 2.09395-5.69095Z" transform="matrix(1.00148 0 0 1 682.665 589.669)"/><path d="M7.34187-18.7642 7.34187-14.6168 12.1604-14.6168 12.1604-11.2748 7.34187-11.2748 7.34187-5.07374C7.34187-4.39257 7.47609-3.93289 7.74453-3.69125 8.01968-3.45636 8.55656-3.34228 9.35513-3.34228L11.7577-3.34228 11.7577-0.000214752 7.74453-0.000214752C5.89903-0.000214752 4.59368-0.38274 3.8253-1.15455 3.05353-1.92296 2.67096-3.22829 2.67096-5.07378L2.67096-11.2748 0.348973-11.2748 0.348973-14.6168 2.67096-14.6168 2.67096-18.7642Z" transform="matrix(1.00148 0 0 1 701.719 589.669)"/><path d="M9.19398-11.6233C8.16386-11.6233 7.37529-11.2508 6.8317-10.5092 6.28475-9.76428 6.01296-8.69051 6.01296-7.28792 6.01296-5.89203 6.28476-4.82162 6.8317-4.08004 7.37529-3.33511 8.16386-2.96599 9.19398-2.96599 10.2141-2.96599 10.9926-3.3351 11.5295-4.08004 12.073-4.8216 12.3482-5.89203 12.3482-7.28792 12.3482-8.69051 12.073-9.76428 11.5295-10.5092 10.9926-11.2508 10.2141-11.6233 9.19398-11.6233ZM9.19398-14.9653C11.7073-14.9653 13.6702-14.2841 15.0863-12.9252 16.4989-11.5729 17.207-9.69384 17.207-7.28792 17.207-4.88871 16.499-3.00963 15.0863-1.65067 13.6703-0.29842 11.7073 0.376074 9.19398 0.376074 6.67064 0.376074 4.69758-0.298386 3.27489-1.65067 1.8589-3.00963 1.15417-4.88871 1.15417-7.28792 1.15417-9.69384 1.85882-11.5729 3.27489-12.9252 4.69758-14.2841 6.67064-14.9653 9.19398-14.9653Z" transform="matrix(1.00148 0 0 1 714.516 589.669)"/><path d="M11.8646-20.3078 11.8646-17.2342 9.27421-17.2342C8.60985-17.2342 8.15011-17.1134 7.89172-16.8718 7.62999-16.637 7.50249-16.2276 7.50249-15.637L7.50249-14.6169 11.4888-14.6169 11.4888-11.2748 7.50249-11.2748 7.50249-0.000360784 2.83162-0.000360784 2.83162-11.2748 0.509633-11.2748 0.509633-14.6169 2.83162-14.6169 2.83162-15.637C2.83162-17.2275 3.27454-18.4053 4.16042-19.167 5.04623-19.9253 6.41867-20.3078 8.28101-20.3078Z" transform="matrix(1.00148 0 0 1 450.414 616.395)"/><path d="M13.0999-10.6302C12.6871-10.8249 12.2812-10.9691 11.8785-11.0597 11.4759-11.147 11.0664-11.1939 10.657-11.1939 9.45581-11.1939 8.52962-10.8081 7.87866-10.0397 7.23441-9.26785 6.91228-8.16725 6.91228-6.73777L6.91228 0.000128851 2.24141 0.000128851 2.24141-14.6168 6.91228-14.6168 6.91228-12.2143C7.50956-13.1705 8.20079-13.8685 8.97923-14.3081 9.75775-14.7443 10.6905-14.9658 11.7844-14.9658 11.9354-14.9658 12.0998-14.9557 12.281-14.9389 12.469-14.9288 12.7374-14.902 13.0863-14.8584Z" transform="matrix(1.00148 0 0 1 462.058 616.395)"/><path d="M9.19398-11.6233C8.16386-11.6233 7.37529-11.2508 6.8317-10.5092 6.28475-9.76428 6.01296-8.69051 6.01296-7.28792 6.01296-5.89203 6.28476-4.82162 6.8317-4.08004 7.37529-3.33511 8.16386-2.96599 9.19398-2.96599 10.2141-2.96599 10.9926-3.3351 11.5295-4.08004 12.073-4.8216 12.3482-5.89203 12.3482-7.28792 12.3482-8.69051 12.073-9.76428 11.5295-10.5092 10.9926-11.2508 10.2141-11.6233 9.19398-11.6233ZM9.19398-14.9653C11.7073-14.9653 13.6702-14.2841 15.0863-12.9252 16.4989-11.5729 17.207-9.69384 17.207-7.28792 17.207-4.88871 16.499-3.00963 15.0863-1.65067 13.6703-0.29842 11.7073 0.376074 9.19398 0.376074 6.67064 0.376074 4.69758-0.298386 3.27489-1.65067 1.8589-3.00963 1.15417-4.88871 1.15417-7.28792 1.15417-9.69384 1.85882-11.5729 3.27489-12.9252 4.69758-14.2841 6.67064-14.9653 9.19398-14.9653Z" transform="matrix(1.00148 0 0 1 475.258 616.395)"/><path d="M15.7843-12.1876C16.3749-13.0903 17.0762-13.7782 17.8915-14.2546 18.7036-14.7277 19.5995-14.9659 20.5759-14.9659 22.257-14.9659 23.5355-14.4459 24.4147-13.409 25.2904-12.3788 25.73-10.8756 25.73-8.89917L25.73-0.000704388 21.0322-0.000704388 21.0322-7.62441C21.0389-7.73179 21.0457-7.84588 21.0457-7.97339 21.0524-8.09754 21.0591-8.27203 21.0591-8.49685 21.0591-9.53363 20.9048-10.2853 20.6027-10.7517 20.2974-11.2148 19.8041-11.4497 19.1263-11.4497 18.2405-11.4497 17.5559-11.0806 17.0727-10.3492 16.5895-9.61429 16.3378-8.55733 16.3211-7.18154L16.3211-0.000730158 11.6233-0.000730158 11.6233-7.62444C11.6233-9.24174 11.4824-10.2854 11.2072-10.7517 10.9288-11.2148 10.4322-11.4497 9.71737-11.4497 8.82143-11.4497 8.12685-11.0773 7.63696-10.3357 7.15376-9.60081 6.91217-8.55389 6.91217-7.19494L6.91217-0.000730158 2.21442-0.000730158 2.21442-14.6176 6.91217-14.6176 6.91217-12.4702C7.4826-13.3023 8.14029-13.9231 8.88525-14.3358 9.63689-14.7552 10.459-14.9666 11.3549-14.9666 12.3649-14.9666 13.2541-14.7184 14.0259-14.2284 14.8043-13.7452 15.3882-13.0641 15.7842-12.1883Z" transform="matrix(1.00148 0 0 1 493.643 616.395)"/><path d="M7.34187-18.7642 7.34187-14.6168 12.1604-14.6168 12.1604-11.2748 7.34187-11.2748 7.34187-5.07374C7.34187-4.39257 7.47609-3.93289 7.74453-3.69125 8.01968-3.45636 8.55656-3.34228 9.35513-3.34228L11.7577-3.34228 11.7577-0.000214752 7.74453-0.000214752C5.89903-0.000214752 4.59368-0.38274 3.8253-1.15455 3.05353-1.92296 2.67096-3.22829 2.67096-5.07378L2.67096-11.2748 0.348973-11.2748 0.348973-14.6168 2.67096-14.6168 2.67096-18.7642Z" transform="matrix(1.00148 0 0 1 530.85 616.395)"/><path d="M16.9388-8.89848 16.9388 0 12.2411 0 12.2411-6.7915C12.2411-8.05992 12.2075-8.93233 12.1471-9.40882 12.0934-9.89201 11.9994-10.2477 11.8652-10.4826 11.6774-10.7846 11.4257-11.0228 11.1136-11.1939 10.7982-11.3617 10.4459-11.449 10.0532-11.449 9.07681-11.449 8.30843-11.0664 7.74466-10.3081 7.18764-9.55648 6.91249-8.51631 6.91249-7.19421L6.91249 0 2.24163 0 2.24163-20.3078 6.91249-20.3078 6.91249-12.4694C7.61715-13.3284 8.36542-13.9593 9.15404-14.3619 9.94922-14.7646 10.8251-14.9658 11.7848-14.9658 13.4658-14.9658 14.7442-14.4457 15.6234-13.4089 16.4993-12.3788 16.9388-10.8755 16.9388-8.89908Z" transform="matrix(1.00148 0 0 1 543.643 616.395)"/><path d="M16.8314-7.34187 16.8314-6.01307 5.90569-6.01307C6.01978-4.9192 6.41909-4.09705 7.10023-3.54341 7.77804-2.99647 8.72762-2.72468 9.9457-2.72468 10.9288-2.72468 11.9355-2.8656 12.9656-3.15418 13.9924-3.44946 15.0528-3.8924 16.1466-4.48298L16.1466-0.885879C15.0359-0.463083 13.9253-0.151022 12.818 0.0537053 11.7174 0.268458 10.6168 0.375834 9.51611 0.375834 6.86529 0.375834 4.80831-0.295267 3.34198-1.63751 1.88235-2.97972 1.15417-4.86215 1.15417-7.28816 1.15417-9.67726 1.86889-11.5496 3.30169-12.912 4.74122-14.2811 6.72433-14.9656 9.24767-14.9656 11.5462-14.9656 13.385-14.271 14.7641-12.8851 16.1399-11.506 16.8311-9.65716 16.8311-7.34185ZM12.0263-8.89882C12.0263-9.78464 11.7646-10.4994 11.2479-11.0463 10.7378-11.5899 10.06-11.8651 9.22112-11.8651 8.31508-11.8651 7.58364-11.61 7.01987-11.1 6.4561-10.59 6.10047-9.85516 5.95951-8.89882Z" transform="matrix(1.00148 0 0 1 562.697 616.395)"/><path d="M2.45625-19.4755 8.06662-19.4755 15.1534-6.12044 15.1534-19.4755 19.9183-19.4755 19.9183 0 14.2944 0 7.22101-13.3679 7.22101 0 2.45617 0Z" transform="matrix(1.00148 0 0 1 590.169 616.395)"/><path d="M9.19398-11.6233C8.16386-11.6233 7.37529-11.2508 6.8317-10.5092 6.28475-9.76428 6.01296-8.69051 6.01296-7.28792 6.01296-5.89203 6.28476-4.82162 6.8317-4.08004 7.37529-3.33511 8.16386-2.96599 9.19398-2.96599 10.2141-2.96599 10.9926-3.3351 11.5295-4.08004 12.073-4.8216 12.3482-5.89203 12.3482-7.28792 12.3482-8.69051 12.073-9.76428 11.5295-10.5092 10.9926-11.2508 10.2141-11.6233 9.19398-11.6233ZM9.19398-14.9653C11.7073-14.9653 13.6702-14.2841 15.0863-12.9252 16.4989-11.5729 17.207-9.69384 17.207-7.28792 17.207-4.88871 16.499-3.00963 15.0863-1.65067 13.6703-0.29842 11.7073 0.376074 9.19398 0.376074 6.67064 0.376074 4.69758-0.298386 3.27489-1.65067 1.8589-3.00963 1.15417-4.88871 1.15417-7.28792 1.15417-9.69384 1.85882-11.5729 3.27489-12.9252 4.69758-14.2841 6.67064-14.9653 9.19398-14.9653Z" transform="matrix(1.00148 0 0 1 612.566 616.395)"/><path d="M2.09384-5.69094 2.09384-14.6169 6.79159-14.6169 6.79159-13.1539C6.79159-12.3553 6.78488-11.3588 6.77817-10.1608 6.7681-8.96961 6.76474-8.17434 6.76474-7.77172 6.76474-6.59728 6.79159-5.75167 6.84528-5.23498 6.90567-4.71487 7.01305-4.33903 7.1674-4.10753 7.35531-3.80217 7.60027-3.56394 7.90562-3.39616 8.21768-3.2351 8.57672-3.15457 8.9794-3.15457 9.95249-3.15457 10.7175-3.52367 11.2746-4.26862 11.8282-5.02025 12.1067-6.06042 12.1067-7.39593L12.1067-14.6169 16.7776-14.6169 16.7776-2.57703e-05 12.1067-2.57703e-05 12.1067-2.10726C11.3987-1.25496 10.6504-0.630797 9.86521-0.228179 9.07673 0.174482 8.20761 0.375808 7.26141 0.375808 5.57697 0.375808 4.29516-0.137588 3.40926-1.16775 2.53015-2.20457 2.09395-3.71119 2.09395-5.69095Z" transform="matrix(1.00148 0 0 1 630.954 616.395)"/><path d="M16.9388-8.89848 16.9388 0 12.2411 0 12.2411-6.80499C12.2411-8.0667 12.2075-8.93241 12.1471-9.40882 12.0934-9.89201 11.9994-10.2477 11.8652-10.4826 11.6774-10.7846 11.4257-11.0228 11.1136-11.1939 10.7982-11.3617 10.4459-11.449 10.0532-11.449 9.07681-11.449 8.30843-11.0664 7.74466-10.3081 7.18764-9.55648 6.91249-8.51631 6.91249-7.19421L6.91249 0 2.24163 0 2.24163-14.6169 6.91249-14.6169 6.91249-12.4694C7.61715-13.3284 8.36542-13.9593 9.15404-14.3619 9.94922-14.7646 10.8251-14.9658 11.7848-14.9658 13.4658-14.9658 14.7442-14.4457 15.6234-13.4089 16.4993-12.3788 16.9388-10.8755 16.9388-8.89908Z" transform="matrix(1.00148 0 0 1 650.009 616.395)"/><path d="M2.45625-19.4755 10.7913-19.4755C13.2677-19.4755 15.1703-18.9252 16.4956-17.8245 17.8278-16.724 18.4955-15.1569 18.4955-13.1268 18.4955-11.0866 17.8278-9.51628 16.4956-8.41563 15.1702-7.31507 13.2677-6.7647 10.7913-6.7647L7.47605-6.7647 7.47605 -7.62953e-16 2.45617 -7.62953e-16ZM7.47613-15.8381 7.47613-10.4022 10.2545-10.4022C11.2276-10.4022 11.9792-10.637 12.5094-11.1135 13.0463-11.5867 13.3147-12.2577 13.3147-13.1269 13.3147-13.9926 13.0463-14.6604 12.5094-15.1267 11.9792-15.5999 11.2276-15.8381 10.2545-15.8381Z" transform="matrix(1.00148 0 0 1 678.38 616.395)"/><path d="M13.0999-10.6302C12.6871-10.8249 12.2812-10.9691 11.8785-11.0597 11.4759-11.147 11.0664-11.1939 10.657-11.1939 9.45581-11.1939 8.52962-10.8081 7.87866-10.0397 7.23441-9.26785 6.91228-8.16725 6.91228-6.73777L6.91228 0.000128851 2.24141 0.000128851 2.24141-14.6168 6.91228-14.6168 6.91228-12.2143C7.50956-13.1705 8.20079-13.8685 8.97923-14.3081 9.75775-14.7443 10.6905-14.9658 11.7844-14.9658 11.9354-14.9658 12.0998-14.9557 12.281-14.9389 12.469-14.9288 12.7374-14.902 13.0863-14.8584Z" transform="matrix(1.00148 0 0 1 697.996 616.395)"/><path d="M9.19398-11.6233C8.16386-11.6233 7.37529-11.2508 6.8317-10.5092 6.28475-9.76428 6.01296-8.69051 6.01296-7.28792 6.01296-5.89203 6.28476-4.82162 6.8317-4.08004 7.37529-3.33511 8.16386-2.96599 9.19398-2.96599 10.2141-2.96599 10.9926-3.3351 11.5295-4.08004 12.073-4.8216 12.3482-5.89203 12.3482-7.28792 12.3482-8.69051 12.073-9.76428 11.5295-10.5092 10.9926-11.2508 10.2141-11.6233 9.19398-11.6233ZM9.19398-14.9653C11.7073-14.9653 13.6702-14.2841 15.0863-12.9252 16.4989-11.5729 17.207-9.69384 17.207-7.28792 17.207-4.88871 16.499-3.00963 15.0863-1.65067 13.6703-0.29842 11.7073 0.376074 9.19398 0.376074 6.67064 0.376074 4.69758-0.298386 3.27489-1.65067 1.8589-3.00963 1.15417-4.88871 1.15417-7.28792 1.15417-9.69384 1.85882-11.5729 3.27489-12.9252 4.69758-14.2841 6.67064-14.9653 9.19398-14.9653Z" transform="matrix(1.00148 0 0 1 711.196 616.395)"/><path d="M2.2415-14.6169 6.91236-14.6169 6.91236-0.255126C6.91236 1.6944 6.44259 3.18426 5.50307 4.21439 4.56349 5.25121 3.20119 5.77134 1.42278 5.77134L-0.885811 5.77134-0.885811 2.69772-0.0804892 2.69772C0.805322 2.69772 1.41273 2.49639 1.74491 2.09373 2.07374 1.69778 2.24152 0.915945 2.24152-0.255143ZM2.2415-20.3078 6.91236-20.3078 6.91236-16.496 2.2415-16.496Z" transform="matrix(1.00148 0 0 1 729.581 616.395)"/><path d="M16.8314-7.34187 16.8314-6.01307 5.90569-6.01307C6.01978-4.9192 6.41909-4.09705 7.10023-3.54341 7.77804-2.99647 8.72762-2.72468 9.9457-2.72468 10.9288-2.72468 11.9355-2.8656 12.9656-3.15418 13.9924-3.44946 15.0528-3.8924 16.1466-4.48298L16.1466-0.885879C15.0359-0.463083 13.9253-0.151022 12.818 0.0537053 11.7174 0.268458 10.6168 0.375834 9.51611 0.375834 6.86529 0.375834 4.80831-0.295267 3.34198-1.63751 1.88235-2.97972 1.15417-4.86215 1.15417-7.28816 1.15417-9.67726 1.86889-11.5496 3.30169-12.912 4.74122-14.2811 6.72433-14.9656 9.24767-14.9656 11.5462-14.9656 13.385-14.271 14.7641-12.8851 16.1399-11.506 16.8311-9.65716 16.8311-7.34185ZM12.0263-8.89882C12.0263-9.78464 11.7646-10.4994 11.2479-11.0463 10.7378-11.5899 10.06-11.8651 9.22112-11.8651 8.31508-11.8651 7.58364-11.61 7.01987-11.1 6.4561-10.59 6.10047-9.85516 5.95951-8.89882Z" transform="matrix(1.00148 0 0 1 738.755 616.395)"/><path d="M14.0525-14.1599 14.0525-10.3481C13.415-10.7843 12.7774-11.1064 12.1332-11.3144 11.4956-11.5191 10.8346-11.6232 10.1467-11.6232 8.84814-11.6232 7.83142-11.2407 7.09989-10.4823 6.3751-9.72064 6.01272-8.65693 6.01272-7.28782 6.01272-5.92552 6.37512-4.86516 7.09989-4.10682 7.83138-3.34512 8.84814-2.96597 10.1467-2.96597 10.8782-2.96597 11.5728-3.07335 12.2271-3.2881 12.8882-3.50285 13.4956-3.82498 14.0525-4.25449L14.0525-0.42923C13.3177-0.160789 12.5761 0.0405453 11.8244 0.174757 11.0728 0.308969 10.3212 0.376092 9.56954 0.376092 6.92877 0.376092 4.86509-0.298368 3.38201-1.65066 1.89549-2.99956 1.15391-4.87864 1.15391-7.28791 1.15391-9.70389 1.89547-11.5863 3.38201-12.9386 4.86517-14.2875 6.92877-14.9653 9.56954-14.9653 10.3279-14.9653 11.0795-14.8982 11.8244-14.764 12.566-14.6298 13.3076-14.4284 14.0525-14.16Z" transform="matrix(1.00148 0 0 1 756.907 616.395)"/><path d="M7.34187-18.7642 7.34187-14.6168 12.1604-14.6168 12.1604-11.2748 7.34187-11.2748 7.34187-5.07374C7.34187-4.39257 7.47609-3.93289 7.74453-3.69125 8.01968-3.45636 8.55656-3.34228 9.35513-3.34228L11.7577-3.34228 11.7577-0.000214752 7.74453-0.000214752C5.89903-0.000214752 4.59368-0.38274 3.8253-1.15455 3.05353-1.92296 2.67096-3.22829 2.67096-5.07378L2.67096-11.2748 0.348973-11.2748 0.348973-14.6168 2.67096-14.6168 2.67096-18.7642Z" transform="matrix(1.00148 0 0 1 772.773 616.395)"/></g></svg>